<?xml version="1.0" standalone="no"?>
<!DOCTYPE svg PUBLIC "-//W3C//DTD SVG 20010904//EN"
 "http://www.w3.org/TR/2001/REC-SVG-20010904/DTD/svg10.dtd">
<svg version="1.0" xmlns="http://www.w3.org/2000/svg"
 width="534.000000pt" height="467.000000pt" viewBox="0 0 534.000000 467.000000"
 preserveAspectRatio="xMidYMid meet">

<g transform="translate(0.000000,467.000000) scale(0.100000,-0.100000)"
fill="#000000" stroke="none">
<path d="M2590 4583 c-29 -16 -77 -50 -107 -76 -86 -79 -323 -449 -454 -708
-29 -59 -68 -182 -79 -250 -5 -35 -17 -102 -26 -149 -21 -107 -25 -447 -7
-530 7 -30 24 -111 38 -180 25 -124 34 -151 115 -365 60 -161 84 -214 172
-384 75 -145 172 -310 188 -321 5 -3 29 -41 55 -85 48 -81 125 -196 153 -228
10 -12 27 -17 46 -15 26 3 35 12 61 63 17 33 47 85 68 115 20 30 37 59 37 63
0 5 13 27 28 50 75 111 124 189 164 262 23 44 51 94 60 110 105 188 224 483
274 678 56 222 66 313 61 557 -5 243 -19 344 -61 445 -37 90 -89 205 -114 250
-12 22 -37 67 -56 100 -41 76 -164 267 -179 280 -13 11 -88 101 -129 155 -39
51 -112 128 -154 161 -47 37 -84 37 -154 2z"/>
<path d="M700 3254 c-190 -24 -330 -57 -337 -80 -2 -6 27 -34 64 -61 86 -64
256 -240 306 -315 20 -32 52 -82 71 -110 37 -57 161 -274 258 -452 133 -244
229 -387 355 -533 74 -85 184 -138 463 -224 79 -25 250 -37 250 -19 0 6 18 10
39 10 22 0 46 3 55 6 18 7 22 34 5 34 -6 0 -9 10 -8 23 2 12 -15 53 -38 92
-51 89 -84 152 -177 346 -96 198 -151 335 -231 576 -36 106 -75 214 -87 240
-27 57 -195 234 -244 258 -19 9 -49 29 -67 44 -33 29 -128 81 -147 81 -6 0
-30 9 -53 21 -93 45 -347 79 -477 63z"/>
<path d="M4317 3220 c-54 -10 -103 -23 -110 -28 -7 -5 -46 -24 -87 -42 -75
-32 -210 -107 -220 -121 -3 -3 -41 -34 -85 -66 -107 -81 -130 -107 -150 -178
-10 -33 -22 -71 -27 -85 -24 -59 -71 -190 -90 -249 -17 -55 -44 -120 -113
-276 -85 -192 -229 -469 -307 -591 -57 -89 -61 -100 -41 -120 15 -14 31 -15
117 -10 189 13 343 50 478 114 141 66 269 162 404 301 49 50 59 69 144 285
149 373 300 639 425 745 16 15 59 54 95 88 36 35 90 77 120 96 93 56 110 69
110 83 0 20 -29 29 -155 49 -170 26 -389 29 -508 5z"/>
<path d="M2262 1480 c0 -14 2 -19 5 -12 2 6 2 18 0 25 -3 6 -5 1 -5 -13z"/>
<path d="M4035 1354 c-16 -3 -87 -16 -157 -29 -139 -27 -200 -50 -196 -75 4
-20 91 -66 153 -80 28 -7 81 -21 118 -32 61 -17 67 -22 61 -40 -13 -42 -164
-151 -238 -173 -105 -31 -201 -14 -331 60 -43 25 -80 45 -82 45 -2 0 -63 39
-136 88 -139 92 -202 126 -218 117 -19 -12 140 -266 214 -342 28 -29 55 -53
60 -53 5 0 27 -13 50 -28 23 -16 80 -48 126 -72 l85 -43 162 7 c160 7 203 14
315 55 78 28 239 70 334 87 118 21 204 18 327 -12 114 -27 138 -27 138 4 0 25
-105 195 -174 280 -78 96 -196 185 -284 213 -66 21 -253 34 -327 23z"/>
<path d="M1051 1335 c-113 -25 -201 -75 -289 -162 -97 -96 -232 -299 -232
-348 0 -19 11 -19 97 -1 86 18 335 38 388 30 22 -3 69 -16 105 -29 36 -13 94
-32 130 -44 36 -11 112 -37 170 -57 79 -28 126 -38 190 -42 78 -4 92 -1 165
27 44 17 86 31 93 31 7 0 42 13 78 30 72 33 154 96 187 145 12 18 44 61 70 96
41 54 117 193 117 213 0 3 -10 6 -22 6 -55 -1 -208 -105 -257 -176 -45 -65
-167 -112 -311 -121 -122 -7 -190 11 -280 75 -35 26 -77 55 -92 64 -56 35 -37
50 107 89 84 23 97 28 158 66 32 20 36 27 27 39 -7 8 -23 14 -35 14 -12 0 -40
7 -61 16 -105 44 -384 65 -503 39z"/>
<path d="M1807 403 c-68 -3 -89 -7 -94 -19 -3 -9 0 -20 8 -25 19 -12 20 -219
1 -242 -25 -29 -4 -37 99 -37 98 0 100 0 109 26 13 33 13 84 0 84 -5 0 -17
-14 -25 -31 -14 -26 -21 -30 -53 -27 -36 3 -37 4 -40 46 -3 34 0 42 13 42 9 0
19 -9 22 -20 3 -12 11 -19 17 -17 16 5 15 119 -1 125 -8 2 -13 -5 -13 -17 0
-14 -6 -21 -20 -21 -17 0 -20 7 -20 39 0 51 28 63 71 32 37 -28 49 -27 49 5 0
28 -17 65 -28 62 -4 -1 -47 -4 -95 -5z"/>
<path d="M2352 398 c-6 -7 -13 -31 -17 -53 -10 -60 -56 -198 -70 -214 -22 -23
-43 -6 -95 76 l-49 77 17 31 c10 16 28 31 40 33 16 2 22 10 22 28 0 22 -4 24
-44 24 -44 0 -74 -19 -61 -39 3 -6 -1 -25 -10 -42 -23 -43 -42 -25 -25 25 15
47 8 56 -44 56 -52 0 -76 -21 -55 -47 18 -21 20 -213 2 -235 -19 -22 3 -38 52
-38 55 0 74 13 58 40 -16 24 -17 60 -3 60 6 0 24 -22 40 -49 l31 -49 95 0 c76
0 97 3 101 15 3 8 0 19 -7 23 -7 4 -10 15 -7 24 9 23 75 22 84 -1 4 -9 1 -19
-5 -21 -17 -5 -15 -29 4 -36 9 -3 33 -6 54 -6 67 0 85 16 56 49 -8 9 -21 36
-29 61 -46 138 -74 198 -97 210 -24 13 -25 13 -38 -2z m38 -170 c0 -13 -8 -18
-25 -18 -28 0 -30 6 -14 47 10 27 11 27 25 9 8 -11 14 -28 14 -38z"/>
<path d="M3293 398 c-6 -7 -13 -31 -17 -53 -13 -74 -58 -200 -78 -217 -30 -27
-16 -48 32 -48 42 0 66 24 40 40 -24 15 -3 40 35 40 37 0 57 -22 37 -42 -22
-22 -1 -38 52 -38 64 0 86 12 68 37 -14 21 -18 31 -63 152 -43 117 -80 162
-106 129z m37 -170 c0 -13 -8 -18 -25 -18 -23 0 -25 3 -19 28 4 15 9 31 12 36
7 12 32 -24 32 -46z"/>
<path d="M4147 392 c-10 -10 -17 -32 -17 -49 0 -41 -57 -205 -77 -220 -26 -21
-8 -43 36 -43 40 0 59 18 39 38 -20 20 0 42 36 42 39 0 53 -14 36 -35 -24 -29
-4 -45 53 -45 65 0 90 19 63 48 -8 10 -29 54 -45 98 -42 116 -56 148 -75 167
-22 22 -29 21 -49 -1z m33 -138 c15 -38 13 -44 -15 -44 -26 0 -29 9 -19 48 8
29 22 28 34 -4z"/>
<path d="M4666 394 c-9 -8 -16 -28 -16 -44 0 -42 -47 -183 -71 -214 -28 -35
-19 -56 24 -56 39 0 63 20 45 38 -20 20 -1 42 36 42 39 0 53 -14 36 -35 -24
-29 -4 -45 53 -45 62 0 93 21 64 43 -8 7 -29 50 -45 97 -40 114 -52 141 -76
168 -23 26 -30 27 -50 6z m32 -139 c17 -37 15 -45 -13 -45 -26 0 -29 9 -19 48
8 29 18 28 32 -3z"/>
<path d="M63 385 c-3 -9 2 -24 11 -34 21 -23 23 -183 2 -223 -18 -35 -4 -48
51 -48 48 0 65 19 45 51 -7 10 -12 30 -12 44 0 22 4 25 35 25 55 0 85 36 85
100 0 42 -5 55 -26 75 -24 22 -36 25 -106 25 -61 0 -80 -3 -85 -15z m135 -47
c15 -15 15 -61 0 -76 -26 -26 -38 -13 -38 38 0 51 12 64 38 38z"/>
<path d="M304 386 c-3 -8 -1 -23 5 -35 6 -11 11 -61 11 -111 0 -91 0 -92 34
-126 27 -27 42 -34 75 -34 94 0 121 38 121 172 0 57 4 98 11 105 21 21 2 43
-36 43 -38 0 -57 -22 -36 -43 6 -6 11 -46 11 -97 0 -72 -3 -90 -18 -103 -24
-22 -38 -21 -62 3 -16 16 -20 33 -20 95 0 41 5 84 12 94 21 34 4 51 -52 51
-35 0 -52 -5 -56 -14z"/>
<path d="M593 384 c-3 -8 -1 -20 6 -27 15 -15 14 -198 -1 -232 -16 -35 1 -46
62 -43 49 3 47 -3 34 89 -4 22 -1 39 5 43 12 8 25 -18 41 -80 12 -49 53 -74
89 -54 22 11 28 35 11 45 -5 3 -10 17 -10 29 0 13 -11 39 -24 58 -20 30 -21
37 -10 53 22 30 17 88 -9 113 -20 19 -35 22 -105 22 -66 0 -84 -3 -89 -16z
m135 -67 c3 -28 -12 -57 -29 -57 -5 0 -9 21 -9 46 0 38 3 45 18 42 10 -2 18
-14 20 -31z"/>
<path d="M851 386 c-10 -12 -9 -20 3 -38 8 -13 21 -48 29 -78 45 -163 54 -185
73 -185 14 0 24 15 40 63 12 35 25 63 30 63 5 1 18 -28 30 -63 16 -48 25 -63
40 -63 15 0 26 22 59 130 22 72 44 136 48 143 15 22 -1 42 -33 42 -33 0 -49
-22 -32 -43 12 -14 -4 -97 -18 -97 -11 0 -31 72 -28 105 3 29 2 30 -45 33 -63
4 -84 -11 -62 -44 21 -32 18 -94 -5 -94 -10 0 -33 86 -26 98 3 6 3 17 0 26 -8
21 -87 22 -103 2z"/>
<path d="M1268 377 c-80 -67 -76 -226 6 -280 54 -36 139 -9 172 55 36 70 10
192 -50 231 -37 24 -95 22 -128 -6z m87 -66 c24 -47 30 -132 11 -156 -16 -20
-16 -20 -36 3 -36 43 -53 145 -28 170 19 19 36 14 53 -17z"/>
<path d="M1520 371 c-56 -55 -31 -148 50 -181 32 -13 41 -46 15 -56 -20 -8
-62 20 -70 46 -11 35 -30 16 -27 -26 4 -53 31 -74 94 -74 41 0 54 5 79 29 23
24 29 38 29 74 0 52 -18 79 -70 105 -22 10 -35 24 -35 36 0 29 19 30 54 1 46
-39 68 -12 37 44 -11 20 -23 25 -70 28 -52 4 -59 2 -86 -26z"/>
<path d="M2543 383 c-4 -9 -1 -19 5 -21 16 -5 17 -223 0 -240 -22 -22 10 -43
61 -40 50 3 50 3 35 75 -3 18 -3 40 0 49 10 26 33 -1 41 -48 7 -42 43 -88 68
-88 7 0 22 6 32 14 16 12 18 18 8 37 -7 13 -15 38 -18 55 -3 18 -15 40 -25 49
-17 16 -18 20 -5 38 23 33 19 90 -8 115 -20 19 -35 22 -105 22 -68 0 -84 -3
-89 -17z m135 -66 c3 -28 -12 -57 -29 -57 -5 0 -9 21 -9 46 0 38 3 45 18 42
10 -2 18 -14 20 -31z"/>
<path d="M2915 384 c-14 -15 -14 -18 0 -33 22 -25 21 -187 -1 -219 -22 -32 -3
-52 51 -52 47 0 77 22 57 42 -7 7 -12 31 -12 55 0 41 1 43 31 43 31 0 31 0 26
-42 -13 -102 -17 -93 33 -96 61 -3 78 8 62 43 -15 33 -16 199 0 224 21 34 3
51 -51 51 -53 0 -69 -16 -51 -50 17 -32 12 -68 -10 -75 -11 -3 -24 -3 -30 0
-14 8 -13 68 1 82 7 7 9 19 6 27 -9 22 -90 22 -112 0z"/>
<path d="M3483 385 c-3 -9 2 -24 11 -34 20 -21 23 -190 4 -220 -18 -30 -3 -51
37 -51 40 0 55 21 37 51 -14 22 -16 99 -3 99 8 0 69 -66 119 -129 33 -42 42
-19 42 107 0 91 4 123 16 140 23 34 11 52 -35 52 -44 0 -56 -16 -35 -45 15
-20 19 -71 6 -79 -4 -2 -32 24 -62 59 -49 57 -59 64 -93 64 -25 1 -40 -4 -44
-14z"/>
<path d="M3783 383 c-4 -9 -1 -19 5 -21 19 -6 16 -226 -3 -242 -30 -25 2 -40
84 -40 122 0 171 47 171 163 0 68 -11 100 -46 132 -24 23 -35 25 -116 25 -74
0 -90 -3 -95 -17z m151 -49 c12 -11 16 -36 16 -93 0 -84 -13 -116 -46 -109
-17 3 -19 14 -22 111 -3 101 -2 107 17 107 11 0 27 -7 35 -16z"/>
<path d="M4314 385 c-4 -9 3 -25 19 -39 62 -57 85 -158 50 -217 -16 -26 -16
-31 -3 -39 19 -12 100 -13 119 -1 12 8 11 15 -3 50 -9 23 -16 49 -16 59 0 43
24 96 61 134 49 52 45 70 -13 66 -41 -3 -43 -4 -41 -34 3 -36 -20 -64 -33 -42
-5 7 -8 26 -9 43 0 30 0 30 -63 33 -49 2 -64 0 -68 -13z"/>
<path d="M4862 388 c-9 -9 -8 -16 5 -30 25 -28 31 -175 9 -219 -19 -38 -8 -59
33 -59 42 0 59 15 44 40 -15 22 -18 113 -4 108 4 -1 37 -36 71 -75 35 -40 66
-73 70 -73 14 0 20 44 20 151 0 74 4 111 14 124 21 29 9 45 -35 45 -42 0 -62
-21 -40 -43 6 -6 11 -29 11 -52 l-1 -40 -62 68 c-51 55 -68 67 -92 67 -17 0
-36 -5 -43 -12z"/>
<path d="M5161 386 c-10 -11 -9 -21 3 -45 20 -38 21 -159 2 -205 -10 -25 -11
-37 -3 -45 12 -12 75 -15 101 -5 18 7 22 39 6 49 -14 9 -13 208 1 222 7 7 9
19 6 27 -8 21 -99 22 -116 2z"/>
</g>
</svg>
